<svg width="519" height="79" viewBox="0 0 519 79" fill="none" xmlns="http://www.w3.org/2000/svg">
<path fill-rule="evenodd" clip-rule="evenodd" d="M494.477 10.8519C495.324 10.0048 496.698 10.0048 497.545 10.8519L510.561 23.868C511.408 24.7152 511.408 26.0888 510.561 26.9359L497.545 39.952C496.698 40.7992 495.324 40.7992 494.477 39.952C493.63 39.1048 493.63 37.7313 494.477 36.8841L505.959 25.402L494.477 13.9199C493.63 13.0727 493.63 11.6991 494.477 10.8519Z" fill="#00BC7D"/>
<path fill-rule="evenodd" clip-rule="evenodd" d="M434.787 10.8519C435.634 11.6991 435.634 13.0727 434.787 13.9199L423.305 25.402L434.787 36.8841C435.634 37.7313 435.634 39.1048 434.787 39.952C433.94 40.7992 432.566 40.7992 431.719 39.952L418.703 26.9359C417.856 26.0888 417.856 24.7152 418.703 23.868L431.719 10.8519C432.566 10.0048 433.94 10.0048 434.787 10.8519Z" fill="#00BC7D"/>
<path d="M472.192 3V24.6496C472.192 25.8602 472.496 27.0514 473.076 28.1136L492.958 64.485C493.559 65.5841 493.864 66.8208 493.842 68.0735C493.821 69.3262 493.473 70.5517 492.834 71.6294C492.195 72.7071 491.287 73.5999 490.198 74.2199C489.109 74.8399 487.878 75.1658 486.625 75.1655H443.326C442.073 75.1658 440.842 74.8399 439.753 74.2199C438.664 73.5999 437.756 72.7071 437.117 71.6294C436.478 70.5517 436.13 69.3262 436.109 68.0735C436.087 66.8208 436.392 65.5841 436.994 64.485L456.875 28.1136C457.456 27.0514 457.76 25.8602 457.759 24.6496V3" stroke="#00BC7D" stroke-width="6" stroke-linecap="round" stroke-linejoin="round"/>
<path d="M444.96 49.9076H484.991" stroke="#00BC7D" stroke-width="6" stroke-linecap="round" stroke-linejoin="round"/>
<path d="M452.347 3H477.605" stroke="#00BC7D" stroke-width="6" stroke-linecap="round" stroke-linejoin="round"/>
<path d="M37.8134 29.2C37.8134 34.72 35.89 37.96 31.634 37.96C27.378 37.96 25.4547 34.72 25.4547 29.2V27.16C25.4547 21.64 27.378 18.4 31.634 18.4C35.89 18.4 37.8134 21.64 37.8134 27.16V29.2ZM44.6934 27.64C44.6934 17.56 40.3174 11.2 31.634 11.2C22.9507 11.2 18.5747 17.56 18.5747 27.64C18.5747 37.72 22.9507 44.08 31.634 44.08C40.3174 44.08 44.6934 37.72 44.6934 27.64ZM67.1912 29.2C67.1912 34.72 65.2679 37.96 61.0119 37.96C56.7559 37.96 54.8325 34.72 54.8325 29.2V27.16C54.8325 21.64 56.7559 18.4 61.0119 18.4C65.2679 18.4 67.1912 21.64 67.1912 27.16V29.2ZM74.0712 27.64C74.0712 17.56 69.6952 11.2 61.0119 11.2C52.3285 11.2 47.9525 17.56 47.9525 27.64C47.9525 37.72 52.3285 44.08 61.0119 44.08C69.6952 44.08 74.0712 37.72 74.0712 27.64ZM81.41 43.6H108.77V37.24H91.97L103.01 25.96C106.61 22.28 108.53 19.4 108.53 16.04C108.53 13.04 107.45 10.64 105.29 9.08C103.25 7.52 100.49 6.8 97.01 6.8C90.77 6.8 85.97 9.8 81.89 16.04L86.69 20.8C89.65 16.76 92.53 14.6 96.49 14.6C99.97 14.6 101.89 16.16 101.89 18.56C101.89 20.52 100.45 22.56 97.97 25.16L81.41 42.32V43.6ZM149.59 35.08C149.59 31.36 147.79 28.36 144.31 26.92C146.47 25.48 147.55 23.2 147.55 20.08C147.55 14.08 142.75 10.96 135.79 10.96C128.95 10.96 124.15 14.08 124.15 20.2C124.15 23.32 125.23 25.52 127.39 26.92C123.91 28.36 122.11 31.36 122.11 35.08C122.11 41.2 127.15 44.32 135.79 44.32C144.43 44.32 149.59 41.2 149.59 35.08ZM131.03 20.68C131.03 18.04 132.95 16.48 135.79 16.48C138.75 16.48 140.67 18.04 140.67 20.68C140.67 23.32 138.75 24.76 135.79 24.76C132.95 24.76 131.03 23.2 131.03 20.68ZM129.35 34.6C129.35 31.84 131.39 30.16 135.79 30.16C140.31 30.16 142.35 31.84 142.35 34.6C142.35 37.36 140.31 38.92 135.79 38.92C131.39 38.92 129.35 37.36 129.35 34.6ZM180.672 29.2C180.672 34.72 178.749 37.96 174.493 37.96C170.237 37.96 168.313 34.72 168.313 29.2V27.16C168.313 21.64 170.237 18.4 174.493 18.4C178.749 18.4 180.672 21.64 180.672 27.16V29.2ZM187.552 27.64C187.552 17.56 183.176 11.2 174.493 11.2C165.809 11.2 161.433 17.56 161.433 27.64C161.433 37.72 165.809 44.08 174.493 44.08C183.176 44.08 187.552 37.72 187.552 27.64ZM195.051 43.6H222.411V37.24H205.611L216.651 25.96C220.251 22.28 222.171 19.4 222.171 16.04C222.171 13.04 221.091 10.64 218.931 9.08C216.891 7.52 214.131 6.8 210.651 6.8C204.411 6.8 199.611 9.8 195.531 16.04L200.331 20.8C203.291 16.76 206.171 14.6 210.131 14.6C213.611 14.6 215.531 16.16 215.531 18.56C215.531 20.52 214.091 22.56 211.611 25.16L195.051 42.32V43.6ZM275.451 43.6H283.731L279.915 32.08H292.747L296.563 43.6H304.843L292.291 7.52H288.003L275.451 43.6ZM286.571 25.96L291.035 12.8L295.499 25.96H286.571ZM336.872 43.6H365.912V37.36H345.152V7.52H336.872V43.6ZM399.087 43.6H407.367V13.76H419.407V7.52H387.047V13.76H399.087V43.6Z" fill="#00BC7D"/>
</svg>
